<svg id="Capa_1" enable-background="new 0 0 512 512" height="512" viewBox="0 0 512 512" width="512" xmlns="http://www.w3.org/2000/svg"><g><circle cx="256" cy="337" r="85"/><path d="m256 162c-96.495 0-175 78.505-175 175s78.505 175 175 175 175-78.505 175-175-78.505-175-175-175zm0 290c-63.411 0-115-51.589-115-115s51.589-115 115-115 115 51.589 115 115-51.589 115-115 115z"/><path d="m160.319 57.276c3.339 13.355 15.338 22.724 29.104 22.724h133.153c13.766 0 25.766-9.369 29.104-22.724l5-20c4.735-18.934-9.586-37.276-29.103-37.276h-143.154c-19.517 0-33.838 18.342-29.104 37.276z"/><path d="m457 162h-94.333c58.926 36.05 98.333 101.007 98.333 175 0 61.846-27.529 117.382-70.976 155h66.976c30.327 0 55-24.673 55-55v-220c0-30.327-24.673-55-55-55z"/><path d="m126 122c0-11.046-8.954-20-20-20h-20c-11.046 0-20 8.954-20 20v10h60z"/><path d="m256 132c22.71 0 44.566 3.719 65 10.568v-32.568h-130v32.568c20.434-6.849 42.29-10.568 65-10.568z"/><path d="m51 337c0-73.993 39.407-138.95 98.333-175h-94.333c-30.327 0-55 24.673-55 55v220c0 30.327 24.673 55 55 55h66.976c-43.447-37.618-70.976-93.154-70.976-155zm-5-125c0-8.284 6.716-15 15-15s15 6.716 15 15-6.716 15-15 15-15-6.716-15-15z"/></g></svg>