<svg viewBox="-61 0 512 512" xmlns="http://www.w3.org/2000/svg"><path d="m110.707031 151h168.585938l13.234375-66.167969c2.667968-13.269531-.730469-26.894531-9.3125-37.351562-3.695313-4.507813-8.257813-8-13.214844-10.730469v-36.75h-30v31h-90v-31h-30v36.75c-4.957031 2.730469-9.519531 6.222656-13.214844 10.730469-8.582031 10.457031-11.980468 24.082031-9.3125 37.351562zm0 0"/><path d="m95.945312 181c-60.292968 58.796875-95.945312 139.957031-95.945312 225v106h90v-106c0-84.796875 35.007812-166.1875 94.933594-225zm0 0"/><path d="m294.054688 181h-63.605469c-69.144531 53.683594-110.449219 137.332031-110.449219 225v106h270v-106c0-85.042969-35.652344-166.203125-95.945312-225zm0 0"/></svg>