<?xml version="1.0"?>
<svg xmlns="http://www.w3.org/2000/svg" id="Outline" viewBox="0 0 512 512" width="512" height="512"><path d="M304,496H464a8,8,0,0,0,8-8V344a8,8,0,0,0-8-8H432V296a40.045,40.045,0,0,0-40-40H376a39.772,39.772,0,0,0-15.776,3.248,186.987,186.987,0,0,0-25.358-26.3,170.434,170.434,0,0,0-67.359-35.391,96,96,0,1,0-86.979.018c-33.16,8.7-63.155,27.408-87.009,54.772C59.007,291.941,40,347.218,40,408a8,8,0,0,0,4.169,7.023C47.835,417.023,134.983,464,224,464a334.752,334.752,0,0,0,72-8.187V488A8,8,0,0,0,304,496ZM456,352V480H312V352Zm-80-80h16a24.027,24.027,0,0,1,24,24v40H398.527a220.7,220.7,0,0,0-28.5-63.248A23.934,23.934,0,0,1,376,272Zm-24,24a23.878,23.878,0,0,1,4.752-14.32A203.434,203.434,0,0,1,381.878,336H352ZM144,112a80,80,0,1,1,80,80A80.091,80.091,0,0,1,144,112Zm80,336c-74.188,0-149.593-35.583-167.958-44.844.971-54.993,18.475-104.658,49.538-140.291C136.422,227.485,178.478,208,224,208a153.355,153.355,0,0,1,100.5,37.143,170.721,170.721,0,0,1,22.573,23.271A39.848,39.848,0,0,0,336,296v40H304a8,8,0,0,0-8,8v95.407A320.723,320.723,0,0,1,224,448Z"/><path d="M376,430.624V440a8,8,0,0,0,16,0v-9.376a24,24,0,1,0-16,0ZM384,400a8,8,0,1,1-8,8A8.009,8.009,0,0,1,384,400Z"/></svg>
