<?xml version="1.0"?>
<svg xmlns="http://www.w3.org/2000/svg" id="Outline" viewBox="0 0 512 512" width="512" height="512"><path d="M28.169,415.023C31.835,417.023,118.983,464,208,464a333.842,333.842,0,0,0,70.065-7.77l-14.8,14.8a8,8,0,0,0,3.127,13.246l33.941,11.313a8,8,0,0,0,8.187-1.932l76.494-76.494a71.972,71.972,0,1,0-16.6-118.942c-14.669-30.609-35.765-56.256-61.552-74.62a169.827,169.827,0,0,0-55.416-26.01,96,96,0,1,0-86.919-.012c-33.16,8.7-63.155,27.408-87.009,54.772C43.007,291.941,24,347.218,24,408A8,8,0,0,0,28.169,415.023ZM376.4,312.637a56,56,0,1,1,11.205,87.794,8,8,0,0,0-9.722,1.233L300.7,478.847l-16.97-5.657,13.474-13.474a8,8,0,0,0,0-11.314l-16.971-16.97,11.314-11.314,16.971,16.97a8,8,0,0,0,11.313,0l46.738-46.738a8,8,0,0,0,1.234-9.722A55.936,55.936,0,0,1,376.4,312.637ZM128,112a80,80,0,1,1,80,80A80.091,80.091,0,0,1,128,112ZM89.58,262.865C120.422,227.485,162.478,208,208,208a153.579,153.579,0,0,1,89.582,28.634c25.267,17.994,45.662,43.744,59.22,74.635a71.953,71.953,0,0,0-5.729,71.953l-36.9,36.9-16.971-16.971a8,8,0,0,0-11.313,0l-22.628,22.628a8,8,0,0,0,0,11.313l4.859,4.859A314.013,314.013,0,0,1,208,448c-74.188,0-149.593-35.583-167.958-44.844C41.013,348.163,58.517,298.5,89.58,262.865Z"/><path d="M416,376.224a23.981,23.981,0,1,0-16.97-7.018A23.925,23.925,0,0,0,416,376.224Zm-5.656-29.645a8,8,0,1,1,0,11.314A7.94,7.94,0,0,1,410.344,346.579Z"/></svg>
